<svg xmlns="http://www.w3.org/2000/svg" xmlns:xlink="http://www.w3.org/1999/xlink" enable-background="new 0 0 1556 849" version="1.1" xml:space="preserve" width="1556" height="849" style=""><rect id="backgroundrect" width="100%" height="100%" x="0" y="0" fill="none" stroke="none"/>  <g class="currentLayer" style=""><title>Layer 1</title><path fill="#ecabab" fill-opacity="1" stroke="#ffffff" stroke-opacity="1" stroke-width="1" stroke-dasharray="none" stroke-linejoin="round" stroke-linecap="butt" stroke-dashoffset="" fill-rule="nonzero" opacity="0.74" marker-start="" marker-mid="" marker-end="" d="M1204.0293072176833,617.1153448324332 C1204.0293072176833,552.0370007985053 1255.3354501518786,499.3235421310237 1318.6763673545895,499.3235421310237 C1382.0172845573002,499.3235421310237 1433.323427491496,552.0370007985053 1433.323427491496,617.1153448324332 C1433.323427491496,682.1936888663611 1382.0172845573002,734.9071475338426 1318.6763673545895,734.9071475338426 C1255.3354501518786,734.9071475338426 1204.0293072176833,682.1936888663611 1204.0293072176833,617.1153448324332 z" class="selected" id="svg_6"/><path fill="#ecabab" fill-opacity="1" stroke="#ffffff" stroke-opacity="1" stroke-width="1" stroke-dasharray="none" stroke-linejoin="round" stroke-linecap="butt" stroke-dashoffset="" fill-rule="nonzero" opacity="0.64" marker-start="" marker-mid="" marker-end="" d="M912.0588231922965,116.27844874864752 C912.0588231922965,55.82130333829948 961.2590184290558,6.85101555591757 1022.0000002028328,6.85101555591757 C1082.7409819766096,6.85101555591757 1131.941177213369,55.82130333829948 1131.941177213369,116.27844874864752 C1131.941177213369,176.73559415899555 1082.7409819766096,225.70588194137747 1022.0000002028328,225.70588194137747 C961.2590184290558,225.70588194137747 912.0588231922965,176.73559415899555 912.0588231922965,116.27844874864752 z" id="svg_2" class=""/><path fill="#ecabab" fill-opacity="1" stroke="#ffffff" stroke-opacity="1" stroke-width="1" stroke-dasharray="none" stroke-linejoin="round" stroke-linecap="butt" stroke-dashoffset="" fill-rule="nonzero" opacity="0.71" marker-start="" marker-mid="" marker-end="" d="M894.1908088885311,483.9254925524641 C894.1908088885311,420.54341962457715 945.7713183782962,369.2039405529887 1009.4509597236852,369.2039405529887 C1073.1306010690737,369.2039405529887 1124.7111105588388,420.54341962457715 1124.7111105588388,483.9254925524641 C1124.7111105588388,547.3075654803512 1073.1306010690737,598.6470445519395 1009.4509597236852,598.6470445519395 C945.7713183782962,598.6470445519395 894.1908088885311,547.3075654803512 894.1908088885311,483.9254925524641 z" class="" id="svg_5"/><path fill="#ecabab" fill-opacity="1" stroke="#ffffff" stroke-opacity="1" stroke-width="1" stroke-dasharray="none" stroke-linejoin="round" stroke-linecap="butt" stroke-dashoffset="" fill-rule="nonzero" opacity="0.62" marker-start="" marker-mid="" marker-end="" d="M1274.4117527877052,279.20587682724 C1274.4117527877052,220.36609782171513 1324.6649196101441,172.70587682724 1386.7058663045127,172.70587682724 C1448.7468129988815,172.70587682724 1498.9999798213203,220.36609782171513 1498.9999798213203,279.20587682724 C1498.9999798213203,338.04565583276485 1448.7468129988815,385.70587682724 1386.7058663045127,385.70587682724 C1324.6649196101441,385.70587682724 1274.4117527877052,338.04565583276485 1274.4117527877052,279.20587682724 z" class="" id="svg_4"/></g></svg>